<?xml version="1.0" encoding="UTF-8"?>
<svg id="Layer_2" data-name="Layer 2" xmlns="http://www.w3.org/2000/svg" viewBox="0 0 328.62 148">
  <defs>
    <style>
      .cls-1 {
        fill: #17bbee;
      }

      .cls-2 {
        fill: #f99f1f;
        fill-rule: evenodd;
      }

      .cls-3 {
        fill: #d7df25;
      }

      .cls-4 {
        fill: #ed2224;
      }

      .cls-5 {
        fill: #484ea1;
      }

      .cls-6 {
        fill: #231f20;
      }
    </style>
  </defs>
  <g id="Chapiteau_logo" data-name="Chapiteau logo">
    <g>
      <circle class="cls-5" cx="131.28" cy="50.2" r="28.84" transform="translate(-1.06 2.86) rotate(-1.24)"/>
      <circle class="cls-4" cx="73.11" cy="73.65" r="57.68" transform="translate(-15.42 127.8) rotate(-76.66)"/>
      <circle class="cls-1" cx="28.84" cy="119.16" r="28.84"/>
      <circle class="cls-3" cx="57.13" cy="15.97" r="15.97"/>
      <path class="cls-2" d="M243.98,79.04c9.79,0,17.75,7.95,17.75,17.75s-7.95,17.75-17.75,17.75-17.75-7.95-17.75-17.75,7.95-17.75,17.75-17.75Z"/>
    </g>
    <g>
      <g>
        <path class="cls-6" d="M39.99,76.79c-2.67,3.45-4.01,8.03-4.01,13.75,0,6.7,1.65,11.74,4.96,15.12-2.51-1.05-4.5-2.96-5.98-5.73-1.48-2.74-2.21-5.84-2.21-9.28,0-2.37,.39-4.55,1.16-6.54,.73-1.97,1.59-3.5,2.6-4.61,.94-1.05,2.1-1.96,3.48-2.71Zm29.25,24.47h.7l-1.12,5.94c-2.18,.84-4.28,1.46-6.29,1.86-2.02,.4-3.96,.6-5.84,.6-5.67,0-10.11-1.65-13.32-4.96-3.21-3.28-4.82-8.05-4.82-14.31s1.72-11,5.17-14.31c3.42-3.28,7.95-4.92,13.57-4.92,4.08,0,8.2,.74,12.38,2.21-.19,2.95-.28,4.7-.28,5.24,0,.49,.01,.97,.04,1.44v.84c0,1.22-.06,2.38-.18,3.48h-.6c-1.45-7.08-5.51-10.62-12.16-10.62-4.5,0-8.09,1.46-10.76,4.39-2.67,2.91-4.01,7.1-4.01,12.59,0,4.8,1.23,8.71,3.69,11.71,2.44,3,6.12,4.5,11.04,4.5,2.72,0,5.2-.54,7.45-1.62,2.23-1.03,4.01-2.39,5.34-4.08Z"/>
        <path class="cls-6" d="M79.93,66.38v42.5c-1.5,.05-3.75,.19-6.75,.42v-.63c1.71-.49,2.82-1.35,3.34-2.57,.52-1.17,.77-3.36,.77-6.57v-25.17c0-2.58-.27-4.43-.81-5.55-.56-1.05-1.65-1.79-3.27-2.21v-.6c3.09,.21,5.33,.34,6.71,.39Zm22.11,42.5v-17.89c0-2.09-.22-3.57-.67-4.46-.47-.91-1.32-1.68-2.57-2.29,2.13,.16,3.64,.77,4.54,1.83,.84,1.01,1.27,2.77,1.27,5.27v10.83c0,3.8,1.46,5.96,4.39,6.5v.63c-2.62-.23-4.95-.38-6.96-.42Z"/>
        <path class="cls-6" d="M117.76,96.06c-1.48,1.85-2.21,3.88-2.21,6.08,0,2.6,.91,4.73,2.74,6.4-1.43-.33-2.7-1.04-3.8-2.14-1.15-1.08-1.72-2.48-1.72-4.22,0-3.02,1.66-5.06,4.99-6.12Zm10.93-1.2v-3.73c0-1.69-.34-3.01-1.02-3.97-.7-.94-2.06-1.41-4.08-1.41-3.14,0-5.79,1.18-7.95,3.55l-.88-.84c.87-1.48,2.24-2.69,4.11-3.66,1.88-.91,3.82-1.37,5.84-1.37,4.38,0,6.57,2.39,6.57,7.17v18.28c-1.08,.05-1.98,.19-2.71,.42l.11-1.86c-1.17,1.24-2.57,1.86-4.18,1.86-1.85,0-3.4-.73-4.64-2.18-1.27-1.45-1.9-3.09-1.9-4.92,0-2.11,.77-3.91,2.32-5.41,1.5-1.5,3.5-2.25,6.01-2.25,.8,0,1.59,.11,2.39,.32Zm0,11.11v-9.18c-.77-.09-1.43-.14-1.97-.14-1.85,0-3.29,.56-4.32,1.69-1.03,1.15-1.55,2.46-1.55,3.94,0,1.34,.43,2.47,1.3,3.41,.89,.98,1.97,1.48,3.23,1.48,1.12,0,2.23-.4,3.3-1.2Zm11.67,3.34l-6.75-.42v-18.25c0-1.85-.18-3.21-.53-4.08-.4-.89-1.09-1.65-2.07-2.29,2.04,.4,3.42,1.12,4.15,2.18,.73,1.08,1.09,3.01,1.09,5.8v10.86c0,1.85,.26,3.18,.77,3.97,.49,.8,1.6,1.32,3.34,1.58v.63Z"/>
        <path class="cls-6" d="M149.99,83.82v46.69l-2.74,.21c.14-3.47,.21-7.17,.21-11.11v-27.42c0-2.04-.09-3.53-.28-4.46-.16-.84-.62-1.62-1.37-2.32-.73-.7-1.66-1.16-2.81-1.37v-.6c.84,0,1.98,.07,3.41,.21,1.45,.12,2.65,.18,3.59,.18Zm2.53,46.69v-46.69c1.24-.07,2.14-.13,2.71-.18-.09,.91-.15,1.66-.18,2.25,2.37-1.76,4.76-2.64,7.17-2.64,3.54,0,6.27,1.28,8.19,3.83,1.92,2.55,2.88,5.66,2.88,9.32s-1.05,6.68-3.16,9.28-4.99,3.9-8.65,3.9c-2.04,0-4.18-.5-6.43-1.51v14.2c0,2.16,.14,3.69,.42,4.61,.28,.89,.91,1.68,1.9,2.36,.96,.66,2.31,1.02,4.04,1.09v.6h-.95c-.49,0-1.46-.06-2.92-.18-1.64-.14-3.32-.22-5.03-.25Zm2.53-41.55v16.49c1.73,1.15,3.77,1.72,6.12,1.72,2.55,0,4.73-.9,6.54-2.71,1.76-1.8,2.64-4.5,2.64-8.09s-.77-6.09-2.32-8.02c-1.57-1.9-3.49-2.85-5.77-2.85-2.7,0-5.1,1.15-7.21,3.45Zm17.47,17.86l-.21-.39c2.23-2.3,3.34-5.71,3.34-10.23,0-4.12-1.11-7.61-3.34-10.44l.21-.21c4.01,2.62,6.01,6.15,6.01,10.58,0,2.11-.53,4.17-1.58,6.19-1.05,2.02-2.53,3.52-4.43,4.5Z"/>
        <path class="cls-6" d="M187.26,72.12l4.96,4.61-1.69,1.76-4.92-4.57,1.65-1.79Zm-1.37,28.02v-16.31h2.64v17.54c0,2.58,.26,4.42,.77,5.52,.49,1.15,1.31,1.97,2.46,2.46h-1.09c-1.57-.7-2.77-1.69-3.59-2.95-.8-1.24-1.2-3.33-1.2-6.26Zm4.64-31.54l4.92,4.61-1.65,1.76-4.96-4.57,1.69-1.79Zm.32,32.13v-16.91h2.64v17.44c0,4.27,1.49,6.4,4.46,6.4,.96,0,1.75-.19,2.36-.56v.77c-1.2,.98-2.51,1.48-3.94,1.48-1.31,0-2.41-.4-3.3-1.2-.96-.82-1.56-1.72-1.79-2.71-.28-.98-.42-2.55-.42-4.71Z"/>
        <path class="cls-6" d="M206.42,99.82v-13.08h-2.25v-.28l4.85-4.61v20.04c0,2.3,.22,3.89,.67,4.78,.45,.91,1.05,1.59,1.83,2.04-1.92-.14-3.26-.84-4.01-2.11-.73-1.24-1.09-3.5-1.09-6.79Zm7.56-23.34v7.84h6.01c1.1,0,1.93-.12,2.5-.35,.61-.26,1.31-.79,2.11-1.58h.88c-1.43,1.99-2.45,3.22-3.06,3.69-.59,.45-1.48,.67-2.67,.67h-5.77v13.43c0,1.99,.11,3.36,.32,4.11,.19,.73,.64,1.36,1.37,1.9,.73,.52,1.75,.77,3.06,.77,2.6,0,4.85-1.22,6.75-3.66l.74,.42c-1.92,3.73-4.71,5.59-8.37,5.59-1.57,0-2.88-.35-3.94-1.05-1.08-.7-1.79-1.59-2.14-2.67-.35-1.1-.53-2.68-.53-4.75v-21.16c.98-1.03,1.9-2.1,2.74-3.2Z"/>
        <path class="cls-6" d="M234.69,106.08l-.14,.21c-3.54-2.04-5.31-5.24-5.31-9.6,0-1.69,.32-3.32,.95-4.89,.63-1.57,1.96-3.15,3.97-4.75l.18,.18c-1.48,2.55-2.21,5.62-2.21,9.21s.86,6.94,2.57,9.63Zm19.12-11.29h-16.31c-.05,1.17-.07,1.89-.07,2.14,0,3.05,.83,5.5,2.5,7.35,1.66,1.83,3.83,2.74,6.5,2.74,2.2,0,4.2-.6,5.98-1.79s3.19-2.8,4.22-4.82h1.51c-2.16,6.17-6.26,9.25-12.3,9.25-3.63,0-6.43-1.27-8.4-3.8-1.97-2.51-2.95-5.68-2.95-9.53s.91-6.79,2.74-9.25c1.8-2.44,4.16-3.66,7.07-3.66,2.34,0,4.41,.88,6.19,2.64,1.76,1.73,2.87,4.64,3.34,8.72Zm-16.03-2.6h12.52c-.12-1.69-.67-3.19-1.65-4.5-1.03-1.31-2.51-1.97-4.43-1.97-1.71,0-3.15,.6-4.32,1.79s-1.88,2.75-2.11,4.68Zm21.48,2.6h-3.13c-.12-4.27-1.23-7.39-3.34-9.39,3.77,1.57,5.93,4.7,6.47,9.39Z"/>
        <path class="cls-6" d="M267.77,96.06c-1.48,1.85-2.21,3.88-2.21,6.08,0,2.6,.91,4.73,2.74,6.4-1.43-.33-2.7-1.04-3.8-2.14-1.15-1.08-1.72-2.48-1.72-4.22,0-3.02,1.66-5.06,4.99-6.12Zm10.93-1.2v-3.73c0-1.69-.34-3.01-1.02-3.97-.7-.94-2.06-1.41-4.08-1.41-3.14,0-5.79,1.18-7.95,3.55l-.88-.84c.87-1.48,2.24-2.69,4.11-3.66,1.88-.91,3.82-1.37,5.84-1.37,4.38,0,6.57,2.39,6.57,7.17v18.28c-1.08,.05-1.98,.19-2.71,.42l.11-1.86c-1.17,1.24-2.57,1.86-4.18,1.86-1.85,0-3.4-.73-4.64-2.18-1.27-1.45-1.9-3.09-1.9-4.92,0-2.11,.77-3.91,2.32-5.41,1.5-1.5,3.5-2.25,6.01-2.25,.8,0,1.59,.11,2.39,.32Zm0,11.11v-9.18c-.77-.09-1.43-.14-1.97-.14-1.85,0-3.29,.56-4.32,1.69-1.03,1.15-1.55,2.46-1.55,3.94,0,1.34,.43,2.47,1.3,3.41,.89,.98,1.97,1.48,3.23,1.48,1.12,0,2.23-.4,3.3-1.2Zm11.67,3.34l-6.75-.42v-18.25c0-1.85-.18-3.21-.53-4.08-.4-.89-1.09-1.65-2.07-2.29,2.04,.4,3.42,1.12,4.15,2.18,.73,1.08,1.09,3.01,1.09,5.8v10.86c0,1.85,.26,3.18,.77,3.97,.49,.8,1.61,1.32,3.34,1.58v.63Z"/>
        <path class="cls-6" d="M292.41,84.03v-.6c2.11,.21,4.45,.34,7.03,.39v16.88c0,2.65,.19,4.43,.56,5.34,.4,.96,.98,1.78,1.76,2.46-1.24-.09-2.39-.6-3.45-1.51-1.01-.87-1.51-2.76-1.51-5.7v-9.67c0-2.44-.29-4.2-.88-5.27-.61-1.05-1.78-1.83-3.52-2.32Zm26.82-.21v25.07c-.89,0-1.78,.07-2.67,.21,.02-.26,.04-.6,.05-1.02s.02-.81,.02-1.16c-3,1.59-5.74,2.39-8.23,2.39-1.71,0-3.08-.39-4.11-1.16-1.05-.75-1.73-1.7-2.04-2.85-.33-1.2-.49-2.81-.49-4.85v-16.63c.7,0,1.66-.06,2.88-.18-.09,.47-.15,1.18-.18,2.14-.02,.63-.06,1.23-.11,1.79v13.64c0,2.13,.33,3.63,.98,4.5,.68,.91,2.02,1.37,4.01,1.37s4.42-.79,7.28-2.36v-13.75c0-2.2-.29-3.82-.88-4.85-.59-1.03-1.68-1.73-3.27-2.11v-.6c1.2,.14,2.27,.23,3.23,.26s2.13,.08,3.52,.12Zm2.36,25.07v-25.07L190.53,26.44l138.09,57v.6c-1.66,.4-2.81,1.14-3.45,2.21-.63,1.08-.95,2.79-.95,5.13v9.74c0,2.48,.32,4.29,.95,5.41,.63,1.1,1.78,1.82,3.45,2.14v.63c-.8-.09-1.98-.19-3.55-.28s-2.73-.14-3.48-.14Z"/>
      </g>
      <path class="cls-6" d="M82.21,66.38L190.53,26.44l-101.6,40.16s-2.71,1.16-3.27,2.21c-.54,1.12-.81,2.98-.81,5.55v10.79c2.16-1.15,4.58-1.72,7.28-1.72,1.88,0,3.61,.52,5.2,1.55,1.57,1.01,2.36,3,2.36,5.98v17.93h-2.92c.21-3.63,.32-6.6,.32-8.89v-7.03c0-1.92-.13-3.34-.39-4.25-.23-.84-.82-1.57-1.76-2.18-.91-.56-2.05-.84-3.41-.84-2.34,0-4.57,.5-6.68,1.51v13.46c0,2.65,.22,4.46,.67,5.45,.47,1.05,1.51,1.91,3.13,2.57v.63c-3.54-.28-5.68-.42-6.43-.42v-42.5"/>
      <g>
        <path d="M140.07,64.86c.2-.03,.39-.12,.56-.24l49.9-38.18-51.39,36.14c-1.1,.77-.39,2.5,.94,2.28h0Z"/>
        <path d="M240.23,64.81c1.33,.22,2.05-1.51,.95-2.29l-50.65-36.08,49.13,38.12c.17,.13,.36,.21,.57,.25h0Z"/>
        <path d="M164.38,61.11l26.15-34.67-28.49,32.78c-.9,1.03-.06,2.63,1.3,2.49h0c.41-.05,.79-.26,1.04-.59Z"/>
        <path d="M219.05,59.25l-28.52-32.81,26.18,34.71c.25,.33,.62,.54,1.04,.59h0c1.37,.15,2.21-1.45,1.31-2.49Z"/>
        <path d="M182.72,59.01l7.81-32.57-11.2,31.56c-.42,1.18,.49,2.42,1.75,2.36h0c.79-.04,1.46-.59,1.64-1.36Z"/>
        <path d="M201.73,58.01l-11.2-31.57,7.81,32.58c.18,.77,.85,1.32,1.64,1.36h0c1.26,.06,2.17-1.17,1.75-2.36Z"/>
        <path d="M271.61,70.87c1.34,.3,2.02-1.55,.8-2.18L190.53,26.44l80.77,44.32c.1,.05,.2,.09,.3,.11h0Z"/>
        <path d="M109.45,70.87c-1.34,.3-2.02-1.55-.8-2.18L190.53,26.44l-80.77,44.32c-.1,.05-.2,.09-.3,.11h0Z"/>
      </g>
    </g>
  </g>
</svg>